<svg xmlns="http://www.w3.org/2000/svg" xmlns:xlink="http://www.w3.org/1999/xlink" id="Capa_1" x="0" y="0" version="1.1" viewBox="0 0 512 512" style="enable-background:new 0 0 512 512" xml:space="preserve"><style type="text/css">.st0{fill:#fff}</style><g><polygon points="381.1 160.1 381.1 160.1 381.1 160.1" class="st0"/><path d="M381.1,160.1c0,0-20.7,54.3-59.8,42.5c-32.7-9.8-30.8-54.1-15.1-90.7C333.5,48.5,255.7,0,255.7,0 s1.2,64.3-48.2,88.8c-42.4,21-54,66.7-34.2,100.9c18.3,31.7-1.1,50.9-18.2,57.7C111.8,264.8,86.5,211,86.5,211 c-18.2,30-28.7,65.2-28.7,102.8c0,107.3,85.3,194.7,191.7,198.1c1.7,0.1,3.3,0.1,5,0.1c2.9,0,5.8-0.1,8.7-0.3 c-2.4,0.2-4.8,0.3-7.2,0.3h0c109.5,0,198.2-88.7,198.2-198.2C454.2,251.8,425.7,196.4,381.1,160.1z" class="st0"/></g></svg>